<svg xmlns="http://www.w3.org/2000/svg" viewBox="0 0 256 256" width="50" height="50"><path d="M25 0C12.31 0 2 10.31 2 23c0 6.877 3.03 13.053 7.82 17.268l-2.416 4.228a1 1 0 0 0-.13.496v4.03a1 1 0 0 0 1.507.86l3.473-2.044a1 1 0 0 0 .36-.365l2.204-3.858A22.896 22.896 0 0 0 25 46c3.655 0 7.11-.865 10.182-2.385l2.205 3.858a1 1 0 0 0 .36.365l3.472 2.045a1 1 0 0 0 1.508-.862v-4.029a1 1 0 0 0-.131-.496l-2.416-4.228C44.97 36.053 48 29.877 48 23 48 10.31 37.69 0 25 0zm0 2c11.61 0 21 9.39 21 21 0 6.144-2.633 11.658-6.832 15.498l-2.086-3.65c2.768-2.83 4.604-6.585 4.865-10.786A1 1 0 0 0 40.95 23h-4a1 1 0 0 0-.996.918c-.166 2-.983 3.763-2.078 5.316l-2.164-3.787.994-.988A1 1 0 0 0 33 23.75V15c0-1.645-1.355-3-3-3h-1V9a1 1 0 0 0-1-1h-6a1 1 0 0 0-1 1v3h-1c-1.645 0-3 1.355-3 3v8.75a1 1 0 0 0 .291.705l.994 1-7.453 13.043C6.633 34.658 4 29.144 4 23 4 11.39 13.39 2 25 2zm-2 8h4v3a1 1 0 0 0 1 1h2c.565 0 1 .435 1 1v8.334l-1.217 1.21a1.013 1.013 0 0 0-.025.026l-2.938 2.92-1.275 1.268a.803.803 0 0 1-1.158-.002l-1.215-1.22-.006-.009-2.926-2.943a.996.996 0 0 0-.011-.012L19 23.338V15c0-.565.435-1 1-1h2a1 1 0 0 0 1-1zm2 6c-1.25 0-2.315.505-2.998 1.273C21.319 18.043 21 19.028 21 20s.319 1.958 1.002 2.727C22.685 23.495 23.75 24 25 24c1.25 0 2.315-.505 2.998-1.273C28.681 21.957 29 20.972 29 20s-.319-1.958-1.002-2.727C27.315 16.505 26.25 16 25 16zm0 2c.75 0 1.185.245 1.502.602.317.356.498.87.498 1.398 0 .528-.181 1.042-.498 1.398-.317.357-.752.602-1.502.602s-1.185-.245-1.502-.602C23.181 21.042 23 20.528 23 20c0-.528.181-1.042.498-1.398.317-.357.752-.602 1.502-.602zm12.71 7h2.07c-.478 3.524-2.117 6.68-4.602 8.99a.995.995 0 0 0-.047.05 15.06 15.06 0 0 1-2.914 2.1.999.999 0 0 0-.104.047A14.834 14.834 0 0 1 25 38c-2.578 0-4.994-.66-7.113-1.813a1 1 0 0 0-1.346.383l-5.531 9.68-1.737 1.021v-2.013l10.475-18.332 1.463 1.47-2.69 4.708a1 1 0 0 0 .399 1.378A12.906 12.906 0 0 0 25 36a12.9 12.9 0 0 0 6.078-1.52l.004.006a13.044 13.044 0 0 0 3.463-2.675l-.004-.004c1.699-1.842 2.758-4.221 3.17-6.807zm-7.468 1.908 2.319 4.059c-.49.465-1.017.89-1.584 1.26l-2.204-3.858zm-2.937 2.92 1.863 3.264C27.873 33.632 26.49 34 25 34c-1.491 0-2.875-.366-4.17-.906l1.844-3.225.295.297a2.832 2.832 0 0 0 3.986.01zm8.289 6.445 5.133 8.985v2.013L38.99 46.25l-5.035-8.813c.57-.355 1.116-.745 1.639-1.164zM17.852 38.31C20.035 39.337 22.43 40 25 40c2.57 0 4.965-.663 7.148-1.691l2.041 3.57A20.875 20.875 0 0 1 25 44c-3.301 0-6.413-.766-9.19-2.121z" transform="scale(5.12)" fill="#fff" stroke-miterlimit="10" font-family="none" font-weight="none" font-size="none" text-anchor="none" style="mix-blend-mode:normal"/></svg>