<svg xmlns="http://www.w3.org/2000/svg" xmlns:xlink="http://www.w3.org/1999/xlink" viewBox="0,0,256,256" width="64px" height="64px"><defs><linearGradient x1="32.005" y1="4.832" x2="32.005" y2="55.495" gradientUnits="userSpaceOnUse" id="color-1"><stop offset="0" stop-color="#fefefe"></stop><stop offset="1" stop-color="#ffffff"></stop></linearGradient><linearGradient x1="32.004" y1="5.539" x2="32.004" y2="59.693" gradientUnits="userSpaceOnUse" id="color-2"><stop offset="0" stop-color="#000000"></stop><stop offset="1" stop-color="#000000"></stop></linearGradient></defs><g fill="none" fill-rule="nonzero" stroke="none" stroke-width="1" stroke-linecap="butt" stroke-linejoin="miter" stroke-miterlimit="10" stroke-dasharray="" stroke-dashoffset="0" font-family="none" font-weight="none" font-size="none" text-anchor="none" style="mix-blend-mode: normal"><g transform="scale(4,4)"><path d="M14.938,53.378c-4.089,-1.756 -5.932,-4.123 -5.932,-7.377v-19.831l-2.332,-3.885l2.241,-2.688l4.599,1.84l7.492,-5.993v-6.179l2.717,-0.777l3.676,5.513h9.212l3.676,-5.513l2.719,0.777v6.179l7.491,5.993l4.599,-1.84l2.241,2.688l-2.331,3.885v19.831c0,3.285 -1.879,5.637 -5.933,7.377c-4.199,1.803 -10.221,2.623 -17.067,2.623c-6.847,0 -12.869,-0.82 -17.068,-2.623zM25.002,32.999c0,-3.311 -2.688,-6.001 -6,-6.001c-3.311,0 -5.999,2.691 -5.999,6.001c0,3.312 2.688,6.001 5.999,6.001c3.312,0.001 6,-2.689 6,-6.001zM50.998,32.999c0,-3.311 -2.688,-6.001 -5.999,-6.001c-3.312,0 -6,2.691 -6,6.001c0,3.312 2.688,6.001 6,6.001c3.311,0.001 5.999,-2.689 5.999,-6.001z" fill="url(#color-1)"></path><path d="M5.003,46.001v-18.723l-3.224,-5.371l5.92,-7.104l5.133,2.053l4.171,-3.336v-7.273l8.427,-2.408l4.108,6.161h4.929l4.108,-6.161l8.428,2.408v7.273l4.169,3.336l5.133,-2.053l5.92,7.104l-3.223,5.371v18.723c0,10.764 -13.128,14 -27,14c-13.772,0 -26.999,-3.194 -26.999,-14zM57.003,46.001v-1h-6.003v5h-14v-5h-9.997v5h-14v-5h-6v1c0,8.617 10.873,12 25,12c14.224,0 25,-3.427 25,-12zM25.003,48.001v-5h13.997v5h10v-5h8.003v-16.276l2.776,-4.629l-4.08,-4.896l-4.867,1.947l-5.829,-4.664v-6.728l-5.573,-1.592l-3.892,5.837h-7.071l-3.892,-5.837l-5.572,1.592v6.727l-5.831,4.664l-4.867,-1.947l-4.08,4.896l2.777,4.629v16.276h8v5h10.001zM31.002,39.001v-8.015h2.001v8.015zM16.003,33.501c0,-1.932 1.568,-3.501 3.5,-3.501c1.932,0 3.5,1.569 3.5,3.501c0,1.932 -1.568,3.501 -3.5,3.501c-1.932,0 -3.5,-1.569 -3.5,-3.501zM40.998,33.501c0,-1.932 1.568,-3.501 3.5,-3.501c1.932,0 3.5,1.569 3.5,3.501c0,1.932 -1.568,3.501 -3.5,3.501c-1.932,0 -3.5,-1.569 -3.5,-3.501z" fill="url(#color-2)"></path></g></g></svg>