<svg xmlns="http://www.w3.org/2000/svg" viewBox="0 0 256 256" width="64" height="64"><defs><linearGradient x1="32.005" y1="4.832" x2="32.005" y2="55.495" gradientUnits="userSpaceOnUse" id="color-1"><stop offset="0" stop-color="#fefefe"/><stop offset="1" stop-color="#fff"/></linearGradient><linearGradient x1="32.004" y1="5.539" x2="32.004" y2="59.693" gradientUnits="userSpaceOnUse" id="color-2"><stop offset="0"/><stop offset="1"/></linearGradient></defs><g fill="none" stroke-miterlimit="10" font-family="none" font-weight="none" font-size="none" text-anchor="none" style="mix-blend-mode:normal"><path d="M14.938 53.378c-4.089-1.756-5.932-4.123-5.932-7.377V26.17l-2.332-3.885 2.241-2.688 4.599 1.84 7.492-5.993V9.265l2.717-.777 3.676 5.513h9.212l3.676-5.513 2.719.777v6.179l7.491 5.993 4.599-1.84 2.241 2.688-2.331 3.885v19.831c0 3.285-1.879 5.637-5.933 7.377-4.199 1.803-10.221 2.623-17.067 2.623-6.847 0-12.869-.82-17.068-2.623zm10.064-20.379a6.004 6.004 0 0 0-6-6.001 6.004 6.004 0 0 0-5.999 6.001A6.003 6.003 0 0 0 19.002 39c3.312.001 6-2.689 6-6.001zm25.996 0a6.003 6.003 0 0 0-5.999-6.001c-3.312 0-6 2.691-6 6.001a6.003 6.003 0 0 0 6 6.001 6.002 6.002 0 0 0 5.999-6.001z" fill="url('#color-1')" transform="scale(4)"/><path d="M5.003 46.001V27.278l-3.224-5.371 5.92-7.104 5.133 2.053 4.171-3.336V6.247l8.427-2.408L29.538 10h4.929l4.108-6.161 8.428 2.408v7.273l4.169 3.336 5.133-2.053 5.92 7.104-3.223 5.371v18.723c0 10.764-13.128 14-27 14-13.772 0-26.999-3.194-26.999-14zm52 0v-1H51v5H37v-5h-9.997v5h-14v-5h-6v1c0 8.617 10.873 12 25 12 14.224 0 25-3.427 25-12zm-32 2v-5H39v5h10v-5h8.003V26.725l2.776-4.629-4.08-4.896-4.867 1.947-5.829-4.664V7.755L39.43 6.163 35.538 12h-7.071l-3.892-5.837-5.572 1.592v6.727l-5.831 4.664-4.867-1.947-4.08 4.896 2.777 4.629V43h8v5h10.001zm5.999-9v-8.015h2.001v8.015zm-14.999-5.5a3.502 3.502 0 0 1 3.5-3.501 3.502 3.502 0 0 1 0 7.002 3.502 3.502 0 0 1-3.5-3.501zm24.995 0a3.502 3.502 0 0 1 3.5-3.501 3.502 3.502 0 0 1 0 7.002 3.502 3.502 0 0 1-3.5-3.501z" fill="url('#color-2')" transform="scale(4)"/></g></svg>