<svg xmlns="http://www.w3.org/2000/svg" viewBox="0 0 256 256" width="80" height="80"><g fill="#fff" stroke-miterlimit="10" font-family="none" font-weight="none" font-size="none" text-anchor="none" style="mix-blend-mode:normal"><path d="M148.8 128c0 11.498-9.302 20.8-20.8 20.8-11.498 0-20.8-9.302-20.8-20.8 0-11.498 9.302-20.8 20.8-20.8 11.498 0 20.8 9.302 20.8 20.8z"/><path d="M128 150.4c-12.349 0-22.4-10.048-22.4-22.4 0-12.352 10.051-22.4 22.4-22.4 12.349 0 22.4 10.048 22.4 22.4 0 12.352-10.051 22.4-22.4 22.4zm0-41.6c-10.589 0-19.2 8.611-19.2 19.2 0 10.589 8.611 19.2 19.2 19.2 10.589 0 19.2-8.611 19.2-19.2 0-10.589-8.611-19.2-19.2-19.2z"/><path d="M78.317 241.61c-5.475 0-10.461-1.255-14.823-3.725-7.296-4.138-12.339-11.267-14.995-21.184-3.088-11.543-2.72-26.874 1.063-44.41C19.059 161.798 1.6 145.7 1.6 128c0-17.702 17.456-33.798 47.958-44.288-3.782-17.54-4.153-32.87-1.065-44.413 2.656-9.92 7.699-17.05 14.992-21.184 4.358-2.47 9.347-3.725 14.822-3.725 14.042 0 31.651 8.736 49.7 24.634 18.047-15.882 35.65-24.611 49.676-24.611 5.475 0 10.461 1.254 14.823 3.725 7.286 4.13 12.332 11.248 14.988 21.155 3.092 11.539 2.72 26.873-1.065 44.416C236.938 94.199 254.4 110.298 254.4 128c0 17.702-17.462 33.802-47.971 44.294 3.782 17.54 4.153 32.87 1.062 44.41-2.656 9.91-7.696 17.027-14.976 21.158-4.365 2.47-9.353 3.725-14.825 3.725-14.036 0-31.645-8.73-49.687-24.605-18.048 15.895-35.654 24.628-49.686 24.628zm-16.439-65.59c-3.17 15.094-3.526 27.99-1.01 37.372 1.734 6.483 4.738 10.98 8.94 13.36 2.41 1.366 5.274 2.06 8.509 2.06 10.86 0 25.158-7.302 40.387-20.598-7.632-7.686-15.082-16.387-22.17-25.89-12.259-1.332-23.907-3.45-34.656-6.305zm75.421 32.188c15.226 13.283 29.527 20.58 40.387 20.582 3.236 0 6.1-.694 8.516-2.06 4.188-2.375 7.187-6.861 8.918-13.335 2.515-9.389 2.163-22.281-1.008-37.373-10.758 2.855-22.41 4.973-34.666 6.304-7.084 9.504-14.524 18.202-22.147 25.882zm-23.488-24.55c4.647 5.683 9.402 10.985 14.189 15.808 4.774-4.82 9.533-10.122 14.176-15.808-4.771.227-9.523.342-14.176.342-4.656 0-9.411-.115-14.189-.342zm-10.294-13.485A289.026 289.026 0 0 0 128 171.2c8.272 0 16.496-.346 24.467-1.024a284.762 284.762 0 0 0 13.485-20.784 277.499 277.499 0 0 0 11.35-21.395 277.154 277.154 0 0 0-11.347-21.389c-4.185-7.11-8.72-14.1-13.488-20.784A289.428 289.428 0 0 0 128 84.8c-8.282 0-16.509.346-24.47 1.027a282.416 282.416 0 0 0-13.501 20.784 277.15 277.15 0 0 0-11.347 21.395 278.372 278.372 0 0 0 11.344 21.39 283.581 283.581 0 0 0 13.49 20.777zm80.454-26.88a292.324 292.324 0 0 1-14.627 24.864c7.597-1.171 14.864-2.672 21.667-4.48-1.888-6.557-4.253-13.395-7.04-20.384zm-118.998 20.38c6.806 1.805 14.07 3.31 21.657 4.48a296.263 296.263 0 0 1-7.635-12.271 294.147 294.147 0 0 1-6.985-12.58c-2.775 6.957-5.136 13.79-7.037 20.372zM191.41 128c4.89 10.851 8.874 21.578 11.866 31.926 23.686-8.332 38.323-20.49 38.323-31.926 0-11.437-14.637-23.594-38.323-31.926-2.986 10.348-6.973 21.075-11.866 31.926zm-138.7-31.92C29.033 104.41 14.4 116.566 14.4 128c0 11.437 14.634 23.594 38.317 31.923 2.989-10.352 6.973-21.078 11.856-31.917-4.887-10.841-8.87-21.568-11.863-31.926zm12.259-3.754c1.9 6.573 4.262 13.408 7.04 20.378a295.878 295.878 0 0 1 6.988-12.582 291.62 291.62 0 0 1 7.642-12.276c-7.597 1.168-14.86 2.672-21.67 4.48zm104.38-4.483a294.324 294.324 0 0 1 14.628 24.861c2.78-6.966 5.142-13.802 7.043-20.38-6.816-1.809-14.08-3.313-21.67-4.48zM78.307 27.19c-3.235 0-6.096.692-8.502 2.061-4.199 2.381-7.207 6.877-8.944 13.36-2.512 9.392-2.16 22.285 1.014 37.373 10.752-2.854 22.407-4.976 34.669-6.307 7.094-9.507 14.544-18.202 22.166-25.882C103.478 34.493 89.171 27.19 78.307 27.19zm81.143 46.484c12.256 1.33 23.907 3.45 34.665 6.304 3.175-15.092 3.53-27.988 1.011-37.376-1.734-6.47-4.736-10.957-8.928-13.332-2.412-1.366-5.276-2.06-8.515-2.06-10.857 0-25.152 7.299-40.38 20.585 7.615 7.677 15.059 16.375 22.147 25.879zM128 72c4.653 0 9.405.115 14.18.342-4.64-5.676-9.396-10.976-14.174-15.801-4.79 4.832-9.542 10.131-14.182 15.801C118.595 72.115 123.347 72 128 72z"/><path d="M78.307 15.99c14.381 0 31.987 9.312 49.703 25.175 17.712-15.85 35.308-25.152 49.676-25.152 5.194 0 9.917 1.184 14.036 3.517 6.899 3.91 11.686 10.697 14.227 20.179 3.446 12.534 2.723 27.968-1.389 45.056 29.51 9.859 48.24 25.414 48.24 43.235 0 17.82-18.73 33.376-48.243 43.238 4.291 18.474 5.011 34.324 1.389 45.053-2.541 9.479-7.325 16.269-14.218 20.18-4.125 2.335-7.872 3.529-13.062 3.529h-1.335c-14.374 0-31.622-9.312-49.331-25.155-17.712 15.859-35.312 25.165-49.686 25.165-5.194 0-9.917-1.184-14.036-3.517-6.905-3.92-11.696-10.717-14.233-20.205-3.808-11.894-3.04-27.53 1.389-45.053C21.926 161.373 3.2 145.821 3.2 128c0-17.818 18.726-33.373 48.23-43.235-2.198-9.789-3.603-18.877-3.65-27.165-.04-6.547.854-12.637 2.262-17.888 2.54-9.491 7.328-16.288 14.233-20.205 4.115-2.336 8.839-3.517 14.032-3.517M60.666 81.965c11.126-3.056 23.481-5.367 36.745-6.775 7.623-10.272 15.6-19.507 23.635-27.468-15.59-13.908-30.77-22.135-42.739-22.135-3.517 0-6.64.762-9.293 2.269-4.585 2.602-7.846 7.424-9.699 14.34-2.745 10.246-2.121 24.095 1.35 39.769m134.66-.003c3.472-15.674 4.096-29.527 1.35-39.773-1.85-6.903-5.11-11.715-9.686-14.31-2.656-1.508-5.789-2.27-9.303-2.27-11.958 0-27.13 8.218-42.716 22.113 8.032 7.961 16 17.196 23.616 27.465 13.257 1.408 25.612 3.719 36.739 6.775m-84.999-7.83c5.767-.343 11.55-.64 17.562-.64 6.013 0 12.016.3 17.782.64-5.785-7.294-11.724-13.956-17.667-19.854-5.942 5.898-11.885 12.56-17.677 19.853M128 172.8c8.835 0 17.293-.387 25.338-1.094a282.861 282.861 0 0 0 13.99-21.501A278.167 278.167 0 0 0 179.072 128a278.5 278.5 0 0 0-11.74-22.198A282.25 282.25 0 0 0 153.337 84.3c-8.042-.714-16.5-1.101-25.338-1.101-8.838 0-17.3.387-25.344 1.098a279.162 279.162 0 0 0-25.744 43.706 278.453 278.453 0 0 0 11.738 22.198 282.908 282.908 0 0 0 13.996 21.5c8.048.71 16.512 1.098 25.354 1.098m56.147-56.278c3.6-8.67 6.58-17.181 8.851-25.322-8.17-2.246-17.193-4.102-26.97-5.462a292.696 292.696 0 0 1 18.118 30.784m-112.31.003c2.65-5.2 5.492-10.41 8.538-15.594a294.302 294.302 0 0 1 9.584-15.19c-9.776 1.357-18.8 3.216-26.97 5.462 2.273 8.141 5.252 16.65 8.849 25.322m130.365 45.465c25.843-8.755 40.998-21.619 40.998-33.99 0-12.371-15.155-25.235-40.998-33.99-3.05 10.896-7.261 22.345-12.544 33.987 5.283 11.645 9.494 23.094 12.544 33.993m-148.41-.003c3.046-10.893 7.254-22.342 12.538-33.98-5.284-11.642-9.495-23.095-12.541-33.991C27.949 102.771 12.8 115.632 12.8 128c0 12.371 15.152 25.232 40.992 33.987m112.237 8.275c9.776-1.356 18.8-3.212 26.97-5.462-2.276-8.14-5.255-16.653-8.852-25.325a296.35 296.35 0 0 1-8.544 15.594 294.307 294.307 0 0 1-9.574 15.193m-76.08-.003a297.728 297.728 0 0 1-9.578-15.187 295.884 295.884 0 0 1-8.534-15.584c-3.597 8.666-6.573 17.174-8.845 25.312 8.166 2.243 17.187 4.1 26.957 5.46m-11.632 60.15c11.965 0 27.139-8.224 42.726-22.125-8.041-7.965-16.016-17.203-23.641-27.479-13.258-1.404-25.607-3.715-36.73-6.77-3.469 15.673-4.093 29.522-1.35 39.769 1.85 6.912 5.113 11.734 9.696 14.336 2.65 1.507 5.782 2.269 9.299 2.269m99.37-.02c3.516 0 6.643-.761 9.302-2.268 4.576-2.596 7.83-7.408 9.677-14.314 2.745-10.25 2.121-24.1-1.348-39.77-11.126 3.056-23.478 5.367-36.739 6.772-7.616 10.272-15.587 19.507-23.619 27.472 15.587 13.888 30.762 22.105 42.726 22.108M128 201.728c5.942-5.9 11.882-12.566 17.67-19.86-5.763.343-11.388 1.066-17.404 1.066-6.02 0-12.183-.723-17.95-1.065 5.793 7.296 11.738 13.961 17.684 19.859M77.171 13.03c-5.757 0-9.872 1.082-14.473 3.69-7.677 4.355-12.976 11.811-15.748 22.163-3.072 11.479-2.806 26.567.756 43.78C17.34 93.404 0 109.84 0 128c0 18.163 17.344 34.595 47.709 45.338-3.562 17.212-3.827 32.3-.752 43.779 2.768 10.345 8.064 17.801 15.747 22.163 4.608 2.611 10.144 3.722 15.898 3.722 14.358 0 31.21-8.112 49.401-23.892 18.189 15.764 35.325 24.077 49.68 24.08 5.757 0 11.011-1.321 15.62-3.932 7.67-4.35 12.963-11.796 15.73-22.135 3.076-11.481 2.81-26.57-.751-43.779C238.652 162.598 256 146.164 256 128c0-18.163-17.344-34.598-47.715-45.34 3.565-17.217 3.827-32.305.752-43.783-2.771-10.34-8.067-17.786-15.741-22.135-4.605-2.608-9.86-3.932-15.613-3.932-14.352 0-31.485 8.316-49.677 24.086-18.195-15.782-35.41-23.875-49.772-23.875zM63.104 78.006c-1.478-7.436-2.47-14.406-2.525-20.518a53.66 53.66 0 0 1 1.824-14.467c1.623-6.055 4.378-10.221 8.189-12.384a15.663 15.663 0 0 1 7.754-2.061c10.179 0 23.574 6.97 38.025 19.309-7.107 7.273-14.054 15.42-20.691 24.272-11.472 1.28-22.41 3.241-32.576 5.85zm76.538-30.115c14.448-12.33 27.875-19.081 38.041-19.081 2.957 0 5.559.624 7.725 1.852 3.805 2.157 6.557 6.314 8.176 12.356 2.797 9.017 2.435 21.004-.698 34.985-10.166-2.605-21.1-4.57-32.57-5.843-6.633-8.848-13.574-16.995-20.674-24.269zm-22.288 22.701a220.486 220.486 0 0 1 10.65-11.77c3.58 3.674 7.138 7.61 10.642 11.77A298.56 298.56 0 0 0 128 70.4c-3.504 0-7.062.064-10.646.192zM104.4 87.36c7.696-.637 15.626-1.091 23.6-1.091 7.971 0 15.9.454 23.594 1.091a280.944 280.944 0 0 1 12.979 20.06 276.315 276.315 0 0 1 10.953 20.577 277.042 277.042 0 0 1-10.956 20.582 281.337 281.337 0 0 1-12.98 20.061c-7.69.637-15.619 1.491-23.59 1.491-7.978 0-15.91-.857-23.61-1.494a279.589 279.589 0 0 1-12.985-20.061A275.022 275.022 0 0 1 80.455 128a275.82 275.82 0 0 1 10.953-20.582A281.43 281.43 0 0 1 104.4 87.36zm79.35 21.517a300.897 300.897 0 0 0-5.385-9.568A296.15 296.15 0 0 0 172.653 90a204.553 204.553 0 0 1 16.365 3.456 215.912 215.912 0 0 1-5.268 15.42zM66.97 93.456A204.553 204.553 0 0 1 83.334 90a293.855 293.855 0 0 0-5.715 9.306 300.897 300.897 0 0 0-5.385 9.568 214.163 214.163 0 0 1-5.264-15.418zm126.198 34.54c4.528-10.118 8.278-20.134 11.168-29.842C226.426 106.214 240 117.507 240 128c0 10.493-13.574 21.786-35.664 29.846-2.893-9.712-6.64-19.73-11.168-29.85zM51.654 157.844C29.571 149.783 16 138.49 16 128c0-10.49 13.571-21.782 35.651-29.843 2.89 9.712 6.637 19.728 11.165 29.846-4.525 10.115-8.272 20.131-11.162 29.84zm120.996 8.16a297.52 297.52 0 0 0 5.712-9.309c1.83-3.11 3.632-6.313 5.388-9.57a217.103 217.103 0 0 1 5.268 15.426 207.805 207.805 0 0 1-16.368 3.453zm-105.677-3.459a216.088 216.088 0 0 1 5.26-15.411 294.354 294.354 0 0 0 5.383 9.561A291.453 291.453 0 0 0 83.328 166a207.145 207.145 0 0 1-16.355-3.456zm11.344 64.666c-2.957 0-5.555-.624-7.722-1.853-3.808-2.163-6.563-6.327-8.182-12.381-2.66-9.104-2.359-21.094.697-34.986 10.164 2.605 21.095 4.57 32.56 5.844 6.64 8.85 13.588 17.001 20.698 24.281-14.448 12.343-27.878 19.098-38.051 19.095zm81.997-43.37c11.468-1.277 22.403-3.238 32.57-5.843 3.535 15.168 3.814 27.257.694 34.982-1.616 6.045-4.365 10.202-8.167 12.355-2.17 1.23-4.768 1.853-7.721 1.853v3.2l-.004-3.2c-10.176 0-23.606-6.752-38.05-19.075 7.103-7.274 14.044-15.42 20.678-24.272zM128 197.184a218.146 218.146 0 0 1-10.656-11.776c3.584.128 7.149.192 10.656.192 3.504 0 7.066-.064 10.646-.192A218.048 218.048 0 0 1 128 197.184z"/></g></svg>